<svg width="84" height="31" viewBox="0 0 84 31" fill="none" xmlns="http://www.w3.org/2000/svg">
<path d="M1.70911 3.7134C1.52001 3.7756 1.37819 3.78338 1.28364 3.73673C1.1891 3.69008 1.11818 3.61233 1.07091 3.50349C1.02364 3.39464 1 3.27802 1 3.15362C1 3.01367 1.00788 2.8815 1.02364 2.7571C1.03939 2.64826 1.06303 2.52386 1.09455 2.38391C1.14182 2.24397 1.19697 2.1118 1.26001 1.9874C1.32304 1.863 1.39395 1.76193 1.47274 1.68418C1.56729 1.59088 1.68547 1.52869 1.82729 1.49759C2.55216 1.37319 3.25339 1.27989 3.93098 1.21769C4.62433 1.1555 5.24677 1.10885 5.7983 1.07775C6.42862 1.0311 7.0353 1.00777 7.61835 1.00777C7.74441 1.00777 7.87048 1.01555 7.99654 1.0311C8.1226 1.0311 8.24867 1.0311 8.37473 1.0311C8.51655 1 8.62686 0.992225 8.70565 1.00777C8.8002 1.00777 8.87899 1.01555 8.94202 1.0311C9.399 1.04665 9.87174 1.06997 10.3602 1.10107C10.7699 1.13217 11.2269 1.17105 11.7312 1.21769C12.2512 1.24879 12.7633 1.29544 13.2676 1.35764C13.3149 1.48204 13.3227 1.63753 13.2912 1.82413C13.2755 1.91743 13.2597 2.01072 13.2439 2.10402C13.2282 2.19732 13.1888 2.28284 13.1258 2.36059C13.0785 2.43834 13.0155 2.51609 12.9367 2.59383C12.8736 2.65603 12.7948 2.71046 12.7003 2.7571C12.1645 2.74155 11.6445 2.73378 11.1403 2.73378C10.6518 2.71823 10.2184 2.71046 9.84022 2.71046H8.56383C8.35897 3.42574 8.10685 4.31206 7.80745 5.36944C7.50804 6.41126 7.20076 7.51528 6.8856 8.6815C6.5862 9.83217 6.29468 10.9828 6.01104 12.1335C5.74315 13.2686 5.53042 14.2949 5.37284 15.2123C5.21526 16.0987 5.05768 16.9694 4.9001 17.8247C4.83707 18.1823 4.76616 18.5555 4.68737 18.9442C4.62433 19.333 4.5613 19.7139 4.49827 20.0871C4.451 20.4603 4.40372 20.818 4.35645 21.1601C4.30917 21.5021 4.26978 21.8131 4.23826 22.093C3.98614 22.2174 3.74977 22.3107 3.52915 22.3729C3.30854 22.4507 3.11157 22.5051 2.93823 22.5362C2.73338 22.5828 2.54428 22.6062 2.37094 22.6062C1.99275 22.6062 1.75638 22.5595 1.66183 22.4662C1.58305 22.3885 1.57517 22.2252 1.6382 21.9764C1.68547 21.7587 1.82729 21.1678 2.06366 20.2038C2.15821 19.7995 2.2764 19.2863 2.41822 18.6643C2.5758 18.0579 2.75701 17.3193 2.96187 16.4485C3.16672 15.5622 3.41097 14.5359 3.69461 13.3697C3.97826 12.1879 4.3013 10.8351 4.66373 9.31126L6.24741 2.82708C5.77467 2.88928 5.30981 2.95925 4.85282 3.037C4.39584 3.11475 3.9625 3.20027 3.55279 3.29357C3.15884 3.37131 2.79641 3.44906 2.46549 3.52681C2.15033 3.60456 1.8982 3.66676 1.70911 3.7134Z" fill="black"/>
<path d="M22.6515 13.6729C22.4308 13.9839 22.1472 14.3727 21.8005 14.8391C21.4538 15.2901 21.0914 15.7488 20.7132 16.2153C20.3508 16.6662 19.9884 17.0861 19.6259 17.4748C19.2792 17.848 18.9877 18.1123 18.7514 18.2678C18.5938 18.3611 18.4126 18.4389 18.2077 18.5011C18.0029 18.5633 17.7901 18.6021 17.5695 18.6177C17.3647 18.6332 17.1677 18.6177 16.9786 18.571C16.7895 18.5399 16.624 18.4777 16.4822 18.3845C16.3404 18.2756 16.2222 18.1201 16.1277 17.918C16.0489 17.7469 15.9701 17.5214 15.8913 17.2416C15.8283 16.9617 15.8046 16.6118 15.8204 16.192C15.4422 16.8139 15.0246 17.296 14.5676 17.6381C14.1106 17.9646 13.6773 18.2056 13.2676 18.3611C12.7948 18.5322 12.3221 18.6332 11.8494 18.6643C11.6288 18.6643 11.3924 18.5866 11.1403 18.4311C10.8881 18.2912 10.6754 18.0657 10.5021 17.7547C10.3287 17.4282 10.2184 17.0161 10.1711 16.5185C10.1239 16.0054 10.1869 15.3989 10.3602 14.6992C10.5808 13.7507 10.9275 12.8877 11.4003 12.1102C11.8888 11.3327 12.4167 10.6719 12.9839 10.1276C13.5512 9.56783 14.1106 9.14799 14.6622 8.8681C15.2137 8.5882 15.6707 8.46381 16.0331 8.49491C16.4586 8.57265 16.8052 8.69705 17.0731 8.8681C17.2937 9.02359 17.4356 9.25684 17.4986 9.56783C17.5774 9.86327 17.4513 10.2598 17.1204 10.7574C17.341 10.7107 17.5222 10.6796 17.6641 10.6641C17.8216 10.6485 17.9398 10.6408 18.0186 10.6408C18.1132 10.6408 18.1762 10.6485 18.2077 10.6641C18.2235 10.6952 18.2313 10.7651 18.2313 10.874C18.2313 10.9673 18.2077 11.1461 18.1604 11.4105C18.1132 11.6748 18.0422 12.0324 17.9477 12.4834C17.8532 12.9343 17.7271 13.5174 17.5695 14.2327C17.538 14.3727 17.5065 14.5048 17.475 14.6292C17.4592 14.7381 17.4356 14.8547 17.4041 14.9791C17.3883 15.0879 17.3647 15.2201 17.3331 15.3756C17.3016 15.5311 17.2622 15.7255 17.215 15.9587C17.1992 16.0987 17.1913 16.2542 17.1913 16.4252C17.2071 16.5807 17.2386 16.7284 17.2859 16.8684C17.3331 17.0083 17.4041 17.1249 17.4986 17.2182C17.6089 17.296 17.7586 17.3349 17.9477 17.3349C18.1053 17.3349 18.3101 17.2416 18.5623 17.055C18.8144 16.8528 19.0823 16.604 19.3659 16.3086C19.6496 15.9976 19.9411 15.6633 20.2405 15.3056C20.5556 14.9324 20.8472 14.5748 21.1151 14.2327C21.3829 13.8906 21.6193 13.5874 21.8242 13.3231C22.0448 13.0587 22.2024 12.8643 22.2969 12.7399C22.423 12.6 22.549 12.5223 22.6751 12.5067C22.8012 12.4756 22.8957 12.5067 22.9587 12.6C23.0218 12.6933 23.0296 12.8332 22.9824 13.0198C22.9509 13.2064 22.8406 13.4241 22.6515 13.6729ZM15.7258 14.6992C15.8046 14.3882 15.8992 14.0228 16.0095 13.6029C16.1198 13.1831 16.2143 12.7788 16.2931 12.3901C16.3719 12.0013 16.4271 11.6826 16.4586 11.4338C16.5058 11.1694 16.498 11.045 16.4349 11.0606C16.3561 11.0761 16.2695 11.0995 16.1749 11.1306C16.0961 11.1617 15.9937 11.185 15.8676 11.2005C15.7416 11.2161 15.6155 11.2394 15.4895 11.2705C15.6155 11.0217 15.6864 10.8196 15.7022 10.6641C15.7337 10.493 15.7416 10.3609 15.7258 10.2676C15.7101 10.1587 15.6786 10.0732 15.6313 10.011C15.4579 9.87105 15.1507 9.98767 14.7094 10.3609C14.284 10.7185 13.7876 11.3871 13.2203 12.3668C12.9839 12.771 12.7948 13.2064 12.653 13.6729C12.5112 14.1239 12.4088 14.5515 12.3457 14.9558C12.2985 15.3601 12.2906 15.7177 12.3221 16.0287C12.3536 16.3241 12.4167 16.5185 12.5112 16.6118C12.6845 16.7828 12.8815 16.8684 13.1021 16.8684C13.3227 16.8528 13.5433 16.7906 13.764 16.6818C14.0003 16.5574 14.2288 16.4019 14.4494 16.2153C14.6858 16.0287 14.8907 15.8343 15.064 15.6322C15.2531 15.43 15.4028 15.2434 15.5131 15.0724C15.6392 14.9013 15.7101 14.7769 15.7258 14.6992Z" fill="black"/>
<path d="M27.3079 21.6499C27.2291 22.0231 27.1267 22.4895 27.0007 23.0493C26.8904 23.6091 26.7564 24.2 26.5988 24.822C26.457 25.444 26.2837 26.0582 26.0788 26.6646C25.8897 27.2866 25.677 27.8386 25.4406 28.3206C25.2042 28.8182 24.9442 29.2225 24.6606 29.5335C24.377 29.8445 24.0618 30 23.7151 30C23.1951 30 22.746 29.8445 22.3678 29.5335C22.0054 29.2381 21.6981 28.8571 21.446 28.3906C21.1938 27.9397 21.0126 27.4499 20.9023 26.9212C20.7763 26.3925 20.7132 25.9027 20.7132 25.4517C20.7132 24.8298 20.7684 24.3088 20.8787 23.889C20.989 23.4847 21.1781 23.096 21.446 22.7228C21.7296 22.3496 22.1078 21.9531 22.5805 21.5332C23.0533 21.1134 23.66 20.5925 24.4006 19.9705C24.763 19.6595 25.1097 19.3641 25.4406 19.0842C25.7715 18.8043 26.0867 18.5477 26.3861 18.3145C26.4649 18.0035 26.5358 17.7158 26.5988 17.4515C26.6776 17.1716 26.7407 16.9228 26.7879 16.7051C26.3782 17.2493 25.8818 17.708 25.2988 18.0812C24.7315 18.4544 24.0776 18.641 23.3369 18.641C22.6593 18.641 22.1078 18.3456 21.6823 17.7547C21.2726 17.1483 21.0678 16.2619 21.0678 15.0957C21.0678 14.5204 21.1781 13.8595 21.3987 13.1131C21.6193 12.3668 21.9345 11.667 22.3442 11.0139C22.7539 10.3609 23.2581 9.80885 23.8569 9.35791C24.4557 8.90697 25.1255 8.6815 25.8661 8.6815C26.2128 8.6815 26.5122 8.76702 26.7643 8.93807C27.0164 9.10912 27.2291 9.32681 27.4025 9.59115C27.5758 9.83995 27.7098 10.1121 27.8043 10.4075C27.8989 10.6874 27.9698 10.9517 28.017 11.2005C28.0486 11.1072 28.0722 11.0139 28.088 10.9206C28.1037 10.8118 28.1274 10.7185 28.1589 10.6408C28.3164 10.1121 28.4898 9.75442 28.6789 9.56783C28.8837 9.36568 29.1831 9.26461 29.5771 9.26461C29.7977 9.26461 29.9789 9.30349 30.1207 9.38123C30.2783 9.45898 30.3571 9.52895 30.3571 9.59115C30.2783 9.7622 30.2153 9.89437 30.168 9.98767C30.1207 10.081 30.0735 10.182 30.0262 10.2909C29.9789 10.3842 29.9316 10.5086 29.8844 10.6641C29.8371 10.8196 29.7741 11.045 29.6953 11.3405C29.6638 11.4493 29.6007 11.7059 29.5062 12.1102C29.4274 12.4989 29.3171 12.9654 29.1753 13.5097C29.0492 14.0539 28.9074 14.6525 28.7498 15.3056C28.608 15.9587 28.4661 16.5962 28.3243 17.2182C28.7656 16.9694 29.2225 16.6662 29.6953 16.3086C30.168 15.9509 30.6171 15.5855 31.0426 15.2123C31.468 14.8391 31.8462 14.4893 32.1772 14.1627C32.5081 13.8206 32.7523 13.5408 32.9099 13.3231C33.036 13.1365 33.1778 13.0043 33.3354 12.9265C33.4929 12.8488 33.6269 12.8255 33.7372 12.8566C33.8633 12.8721 33.9342 12.9421 33.9499 13.0665C33.9814 13.1753 33.9342 13.3308 33.8081 13.533C33.4457 14.1083 33.0044 14.6681 32.4844 15.2123C31.9644 15.741 31.4286 16.2386 30.8771 16.7051C30.3413 17.156 29.8135 17.5603 29.2934 17.918C28.7892 18.2601 28.3558 18.5399 27.9934 18.7576C27.8358 19.4574 27.7019 20.0249 27.5916 20.4603C27.4813 20.8957 27.3867 21.2922 27.3079 21.6499ZM24.3297 17.055C24.6606 17.055 24.9679 16.9694 25.2515 16.7984C25.5509 16.6273 25.8188 16.433 26.0552 16.2153C26.2915 15.982 26.4885 15.7488 26.6461 15.5155C26.8037 15.2823 26.9219 15.0957 27.0007 14.9558C27.0637 14.8158 27.1346 14.6292 27.2134 14.396C27.3079 14.1627 27.3788 13.9373 27.4261 13.7196C27.4734 13.5019 27.4892 13.3075 27.4734 13.1365C27.4734 12.9654 27.4182 12.8721 27.3079 12.8566C27.2134 12.841 27.1346 12.7788 27.0716 12.67C27.0243 12.5611 26.9849 12.4367 26.9534 12.2968C26.9219 12.1568 26.8982 12.0169 26.8825 11.8769C26.8825 11.737 26.8746 11.6126 26.8588 11.5038C26.78 10.9595 26.6461 10.563 26.457 10.3142C26.2679 10.0654 26.0552 9.94102 25.8188 9.94102C25.4249 9.94102 25.0467 10.0965 24.6842 10.4075C24.3376 10.7185 24.0224 11.1228 23.7388 11.6204C23.4709 12.1024 23.2581 12.6389 23.1006 13.2298C22.943 13.8051 22.8642 14.3571 22.8642 14.8858C22.8642 15.5389 22.9587 16.0676 23.1478 16.4719C23.3369 16.8606 23.7309 17.055 24.3297 17.055ZM23.2424 27.8775C23.5575 27.8775 23.8097 27.6442 23.9988 27.1777C24.2036 26.7268 24.4163 26.1048 24.637 25.3118C24.6842 25.1252 24.7473 24.8531 24.8261 24.4954C24.9206 24.1534 25.023 23.7568 25.1333 23.3059C25.2594 22.855 25.3855 22.3651 25.5115 21.8365C25.6376 21.3233 25.7715 20.8024 25.9134 20.2737C25.7873 20.3826 25.6534 20.4914 25.5115 20.6003C25.3855 20.7247 25.2515 20.8646 25.1097 21.0201C24.763 21.3466 24.4242 21.6576 24.0933 21.9531C23.7782 22.2641 23.4945 22.5828 23.2424 22.9094C22.9903 23.2515 22.7854 23.6169 22.6278 24.0056C22.486 24.3944 22.4151 24.8453 22.4151 25.3584C22.4151 25.8716 22.4308 26.2914 22.4624 26.618C22.5096 26.9445 22.5648 27.2011 22.6278 27.3877C22.7066 27.5743 22.7933 27.6987 22.8878 27.7609C22.9981 27.8386 23.1163 27.8775 23.2424 27.8775Z" fill="black"/>
<path d="M38.4409 21.6499C38.3622 22.0231 38.2597 22.4895 38.1337 23.0493C38.0234 23.6091 37.8894 24.2 37.7318 24.822C37.59 25.444 37.4167 26.0582 37.2118 26.6646C37.0227 27.2866 36.81 27.8386 36.5736 28.3206C36.3373 28.8182 36.0773 29.2225 35.7936 29.5335C35.51 29.8445 35.1948 30 34.8481 30C34.3281 30 33.879 29.8445 33.5008 29.5335C33.1384 29.2381 32.8311 28.8571 32.579 28.3906C32.3269 27.9397 32.1456 27.4499 32.0353 26.9212C31.9093 26.3925 31.8462 25.9027 31.8462 25.4517C31.8462 24.8298 31.9014 24.3088 32.0117 23.889C32.122 23.4847 32.3111 23.096 32.579 22.7228C32.8626 22.3496 33.2408 21.9531 33.7136 21.5332C34.1863 21.1134 34.793 20.5925 35.5336 19.9705C35.896 19.6595 36.2427 19.3641 36.5736 19.0842C36.9045 18.8043 37.2197 18.5477 37.5191 18.3145C37.5979 18.0035 37.6688 17.7158 37.7318 17.4515C37.8106 17.1716 37.8737 16.9228 37.9209 16.7051C37.5112 17.2493 37.0149 17.708 36.4318 18.0812C35.8645 18.4544 35.2106 18.641 34.4699 18.641C33.7923 18.641 33.2408 18.3456 32.8153 17.7547C32.4056 17.1483 32.2008 16.2619 32.2008 15.0957C32.2008 14.5204 32.3111 13.8595 32.5317 13.1131C32.7523 12.3668 33.0675 11.667 33.4772 11.0139C33.8869 10.3609 34.3911 9.80885 34.99 9.35791C35.5888 8.90697 36.2585 8.6815 36.9991 8.6815C37.3458 8.6815 37.6452 8.76702 37.8973 8.93807C38.1494 9.10912 38.3622 9.32681 38.5355 9.59115C38.7088 9.83995 38.8428 10.1121 38.9373 10.4075C39.0319 10.6874 39.1028 10.9517 39.1501 11.2005C39.1816 11.1072 39.2052 11.0139 39.221 10.9206C39.2367 10.8118 39.2604 10.7185 39.2919 10.6408C39.4495 10.1121 39.6228 9.75442 39.8119 9.56783C40.0167 9.36568 40.3161 9.26461 40.7101 9.26461C40.9307 9.26461 41.1119 9.30349 41.2537 9.38123C41.4113 9.45898 41.4901 9.52895 41.4901 9.59115C41.4113 9.7622 41.3483 9.89437 41.301 9.98767C41.2537 10.081 41.2065 10.182 41.1592 10.2909C41.1119 10.3842 41.0646 10.5086 41.0174 10.6641C40.9701 10.8196 40.9071 11.045 40.8283 11.3405C40.7968 11.4493 40.7337 11.7059 40.6392 12.1102C40.5604 12.4989 40.4501 12.9654 40.3083 13.5097C40.1822 14.0539 40.0404 14.6525 39.8828 15.3056C39.741 15.9587 39.5992 16.5962 39.4573 17.2182C39.8986 16.9694 40.3555 16.6662 40.8283 16.3086C41.301 15.9509 41.7501 15.5855 42.1756 15.2123C42.6011 14.8391 42.9792 14.4893 43.3102 14.1627C43.6411 13.8206 43.8853 13.5408 44.0429 13.3231C44.169 13.1365 44.3108 13.0043 44.4684 12.9265C44.6259 12.8488 44.7599 12.8255 44.8702 12.8566C44.9963 12.8721 45.0672 12.9421 45.0829 13.0665C45.1144 13.1753 45.0672 13.3308 44.9411 13.533C44.5787 14.1083 44.1375 14.6681 43.6174 15.2123C43.0974 15.741 42.5617 16.2386 42.0101 16.7051C41.4744 17.156 40.9465 17.5603 40.4265 17.918C39.9222 18.2601 39.4889 18.5399 39.1264 18.7576C38.9688 19.4574 38.8349 20.0249 38.7246 20.4603C38.6143 20.8957 38.5197 21.2922 38.4409 21.6499ZM35.4627 17.055C35.7936 17.055 36.1009 16.9694 36.3845 16.7984C36.6839 16.6273 36.9518 16.433 37.1882 16.2153C37.4246 15.982 37.6215 15.7488 37.7791 15.5155C37.9367 15.2823 38.0549 15.0957 38.1337 14.9558C38.1967 14.8158 38.2676 14.6292 38.3464 14.396C38.4409 14.1627 38.5119 13.9373 38.5591 13.7196C38.6064 13.5019 38.6222 13.3075 38.6064 13.1365C38.6064 12.9654 38.5513 12.8721 38.4409 12.8566C38.3464 12.841 38.2676 12.7788 38.2046 12.67C38.1573 12.5611 38.1179 12.4367 38.0864 12.2968C38.0549 12.1568 38.0312 12.0169 38.0155 11.8769C38.0155 11.737 38.0076 11.6126 37.9918 11.5038C37.9131 10.9595 37.7791 10.563 37.59 10.3142C37.4009 10.0654 37.1882 9.94102 36.9518 9.94102C36.5579 9.94102 36.1797 10.0965 35.8172 10.4075C35.4706 10.7185 35.1554 11.1228 34.8718 11.6204C34.6039 12.1024 34.3911 12.6389 34.2336 13.2298C34.076 13.8051 33.9972 14.3571 33.9972 14.8858C33.9972 15.5389 34.0917 16.0676 34.2808 16.4719C34.4699 16.8606 34.8639 17.055 35.4627 17.055ZM34.3754 27.8775C34.6905 27.8775 34.9427 27.6442 35.1318 27.1777C35.3366 26.7268 35.5494 26.1048 35.77 25.3118C35.8172 25.1252 35.8803 24.8531 35.9591 24.4954C36.0536 24.1534 36.156 23.7568 36.2663 23.3059C36.3924 22.855 36.5185 22.3651 36.6445 21.8365C36.7706 21.3233 36.9045 20.8024 37.0464 20.2737C36.9203 20.3826 36.7864 20.4914 36.6445 20.6003C36.5185 20.7247 36.3845 20.8646 36.2427 21.0201C35.896 21.3466 35.5572 21.6576 35.2263 21.9531C34.9112 22.2641 34.6275 22.5828 34.3754 22.9094C34.1233 23.2515 33.9184 23.6169 33.7608 24.0056C33.619 24.3944 33.5481 24.8453 33.5481 25.3584C33.5481 25.8716 33.5639 26.2914 33.5954 26.618C33.6426 26.9445 33.6978 27.2011 33.7608 27.3877C33.8396 27.5743 33.9263 27.6987 34.0208 27.7609C34.1311 27.8386 34.2493 27.8775 34.3754 27.8775Z" fill="black"/>
<path d="M42.4356 18.1979C42.3253 18.3689 42.2071 18.4777 42.081 18.5244C41.9392 18.5866 41.821 18.5944 41.7265 18.5477C41.6162 18.5166 41.5453 18.4389 41.5138 18.3145C41.4822 18.1901 41.5138 18.0346 41.6083 17.848C41.6556 17.7547 41.7659 17.5448 41.9392 17.2182C42.0968 16.8917 42.2938 16.5029 42.5301 16.052C42.7508 15.5855 42.995 15.0879 43.2629 14.5592C43.5308 14.015 43.7829 13.5019 44.0193 13.0198C44.2714 12.5378 44.4999 12.1102 44.7047 11.737C44.9096 11.3483 45.0593 11.0684 45.1538 10.8973C44.9805 10.7418 44.8623 10.633 44.7993 10.5708C44.7363 10.493 44.689 10.3375 44.6575 10.1043C44.6259 9.90215 44.6732 9.6378 44.7993 9.31126C44.9254 8.98472 45.0908 8.67373 45.2957 8.37828C45.5005 8.06729 45.729 7.80295 45.9811 7.58525C46.2333 7.36756 46.4775 7.25871 46.7139 7.25871C47.1551 7.25871 47.4624 7.39866 47.6357 7.67855C47.8248 7.95845 47.9351 8.24611 47.9666 8.54155C47.9982 8.7437 47.9824 9.00027 47.9194 9.31126C47.8563 9.62225 47.7382 9.90215 47.5648 10.1509C47.6121 10.182 47.6751 10.2209 47.7539 10.2676C47.8327 10.2987 47.9588 10.3142 48.1321 10.3142C48.3842 10.3142 48.5576 10.2987 48.6521 10.2676C48.7624 10.2365 48.9279 10.2209 49.1485 10.2209C49.4164 10.2209 49.637 10.2909 49.8103 10.4308C49.9837 10.5552 50.1255 10.7185 50.2358 10.9206C50.3461 11.1072 50.4249 11.3172 50.4722 11.5504C50.5352 11.7681 50.5746 11.9702 50.5903 12.1568C50.6376 12.5456 50.5352 12.9499 50.2831 13.3697C50.0309 13.7895 49.7237 14.2483 49.3612 14.7458C49.1406 15.0568 48.92 15.4067 48.6994 15.7954C48.4788 16.1842 48.3842 16.534 48.4157 16.845C48.4473 17.0472 48.5024 17.2105 48.5812 17.3349C48.66 17.4592 48.8806 17.5214 49.243 17.5214C49.5109 17.5214 49.8024 17.4282 50.1176 17.2416C50.4485 17.0394 50.7794 16.7906 51.1104 16.4952C51.457 16.1842 51.7958 15.8499 52.1267 15.4922C52.4577 15.119 52.7649 14.7614 53.0486 14.4193C53.3322 14.0617 53.5686 13.7429 53.7577 13.463C53.9626 13.1831 54.1123 12.981 54.2068 12.8566C54.2856 12.7322 54.388 12.6466 54.5141 12.6C54.6401 12.5534 54.7505 12.5534 54.845 12.6C54.9395 12.6466 54.9947 12.7399 55.0105 12.8799C55.042 13.0198 54.9868 13.2064 54.845 13.4397C54.7505 13.5952 54.585 13.844 54.3486 14.1861C54.128 14.5282 53.8522 14.9091 53.5213 15.329C53.2062 15.7488 52.8516 16.1842 52.4577 16.6351C52.0637 17.0705 51.6461 17.4748 51.2049 17.848C50.7794 18.2056 50.3461 18.5011 49.9049 18.7343C49.4794 18.9676 49.0697 19.0842 48.6758 19.0842C48.266 19.0842 47.9272 19.0064 47.6594 18.8509C47.3915 18.6954 47.1709 18.5088 46.9975 18.2912C46.8399 18.0579 46.7218 17.8091 46.643 17.5448C46.5799 17.2649 46.5563 17.0083 46.5721 16.7751C46.5878 16.5885 46.6351 16.3941 46.7139 16.192C46.8084 15.9743 46.9109 15.7566 47.0212 15.5389C47.1472 15.3056 47.2733 15.0802 47.3994 14.8625C47.5412 14.6292 47.6672 14.4038 47.7775 14.1861C48.0454 13.7351 48.2582 13.3542 48.4157 13.0432C48.5891 12.7166 48.6758 12.4445 48.6758 12.2268C48.6758 12.0869 48.6442 11.9625 48.5812 11.8536C48.5182 11.7448 48.4157 11.6903 48.2739 11.6903C48.1794 11.6903 48.1085 11.6981 48.0612 11.7137C48.0297 11.7137 47.9903 11.7137 47.943 11.7137C47.9115 11.7137 47.8563 11.7214 47.7775 11.737C47.7145 11.737 47.6121 11.737 47.4703 11.737C47.2654 11.737 47.0921 11.7059 46.9503 11.6437C46.8084 11.5815 46.6745 11.5349 46.5484 11.5038C46.4854 11.6126 46.3436 11.8458 46.123 12.2035C45.9023 12.5611 45.6423 12.981 45.3429 13.463C45.0593 13.945 44.752 14.4504 44.4211 14.9791C44.1059 15.5078 43.8065 16.0054 43.5229 16.4719C43.2393 16.9228 43.0029 17.3115 42.8138 17.6381C42.6089 17.9491 42.4829 18.1357 42.4356 18.1979Z" fill="black"/>
<path d="M65.2925 13.6729C65.0719 13.9839 64.7883 14.3727 64.4416 14.8391C64.0949 15.2901 63.7325 15.7488 63.3543 16.2153C62.9919 16.6662 62.6294 17.0861 62.267 17.4748C61.9203 17.848 61.6288 18.1123 61.3924 18.2678C61.2349 18.3611 61.0536 18.4389 60.8488 18.5011C60.6439 18.5633 60.4312 18.6021 60.2106 18.6177C60.0057 18.6332 59.8088 18.6177 59.6197 18.571C59.4306 18.5399 59.2651 18.4777 59.1233 18.3845C58.9815 18.2756 58.8633 18.1201 58.7687 17.918C58.6899 17.7469 58.6112 17.5214 58.5324 17.2416C58.4693 16.9617 58.4457 16.6118 58.4615 16.192C58.0833 16.8139 57.6657 17.296 57.2087 17.6381C56.7517 17.9646 56.3184 18.2056 55.9087 18.3611C55.4359 18.5322 54.9632 18.6332 54.4904 18.6643C54.2698 18.6643 54.0335 18.5866 53.7813 18.4311C53.5292 18.2912 53.3165 18.0657 53.1431 17.7547C52.9698 17.4282 52.8595 17.0161 52.8122 16.5185C52.7649 16.0054 52.828 15.3989 53.0013 14.6992C53.2219 13.7507 53.5686 12.8877 54.0413 12.1102C54.5298 11.3327 55.0577 10.6719 55.625 10.1276C56.1923 9.56783 56.7517 9.14799 57.3032 8.8681C57.8548 8.5882 58.3118 8.46381 58.6742 8.49491C59.0997 8.57265 59.4463 8.69705 59.7142 8.8681C59.9348 9.02359 60.0766 9.25684 60.1397 9.56783C60.2185 9.86327 60.0924 10.2598 59.7615 10.7574C59.9821 10.7107 60.1633 10.6796 60.3051 10.6641C60.4627 10.6485 60.5809 10.6408 60.6597 10.6408C60.7542 10.6408 60.8173 10.6485 60.8488 10.6641C60.8645 10.6952 60.8724 10.7651 60.8724 10.874C60.8724 10.9673 60.8488 11.1461 60.8015 11.4105C60.7542 11.6748 60.6833 12.0324 60.5888 12.4834C60.4942 12.9343 60.3682 13.5174 60.2106 14.2327C60.1791 14.3727 60.1476 14.5048 60.116 14.6292C60.1003 14.7381 60.0766 14.8547 60.0451 14.9791C60.0294 15.0879 60.0057 15.2201 59.9742 15.3756C59.9427 15.5311 59.9033 15.7255 59.856 15.9587C59.8403 16.0987 59.8324 16.2542 59.8324 16.4252C59.8482 16.5807 59.8797 16.7284 59.9269 16.8684C59.9742 17.0083 60.0451 17.1249 60.1397 17.2182C60.25 17.296 60.3997 17.3349 60.5888 17.3349C60.7464 17.3349 60.9512 17.2416 61.2033 17.055C61.4555 16.8528 61.7234 16.604 62.007 16.3086C62.2906 15.9976 62.5822 15.6633 62.8816 15.3056C63.1967 14.9324 63.4882 14.5748 63.7561 14.2327C64.024 13.8906 64.2604 13.5874 64.4652 13.3231C64.6859 13.0587 64.8434 12.8643 64.938 12.7399C65.064 12.6 65.1901 12.5223 65.3162 12.5067C65.4422 12.4756 65.5368 12.5067 65.5998 12.6C65.6628 12.6933 65.6707 12.8332 65.6235 13.0198C65.5919 13.2064 65.4816 13.4241 65.2925 13.6729ZM58.3669 14.6992C58.4457 14.3882 58.5402 14.0228 58.6505 13.6029C58.7609 13.1831 58.8554 12.7788 58.9342 12.3901C59.013 12.0013 59.0681 11.6826 59.0997 11.4338C59.1469 11.1694 59.139 11.045 59.076 11.0606C58.9972 11.0761 58.9106 11.0995 58.816 11.1306C58.7372 11.1617 58.6348 11.185 58.5087 11.2005C58.3827 11.2161 58.2566 11.2394 58.1305 11.2705C58.2566 11.0217 58.3275 10.8196 58.3433 10.6641C58.3748 10.493 58.3827 10.3609 58.3669 10.2676C58.3511 10.1587 58.3196 10.0732 58.2724 10.011C58.099 9.87105 57.7917 9.98767 57.3505 10.3609C56.925 10.7185 56.4287 11.3871 55.8614 12.3668C55.625 12.771 55.4359 13.2064 55.2941 13.6729C55.1523 14.1239 55.0499 14.5515 54.9868 14.9558C54.9395 15.3601 54.9317 15.7177 54.9632 16.0287C54.9947 16.3241 55.0577 16.5185 55.1523 16.6118C55.3256 16.7828 55.5226 16.8684 55.7432 16.8684C55.9638 16.8528 56.1844 16.7906 56.405 16.6818C56.6414 16.5574 56.8699 16.4019 57.0905 16.2153C57.3269 16.0287 57.5317 15.8343 57.7051 15.6322C57.8942 15.43 58.0439 15.2434 58.1542 15.0724C58.2802 14.9013 58.3511 14.7769 58.3669 14.6992Z" fill="black"/>
<path d="M74.7237 17.2416C74.7237 16.915 74.7552 16.5418 74.8182 16.122C74.897 15.7021 74.9916 15.2745 75.1019 14.8391C75.2122 14.3882 75.3225 13.9528 75.4328 13.533C75.5431 13.1131 75.6376 12.7399 75.7164 12.4134C75.811 12.0091 75.8031 11.6981 75.6928 11.4804C75.5825 11.2627 75.3934 11.1539 75.1255 11.1539C74.9995 11.1539 74.7473 11.2627 74.3691 11.4804C74.0067 11.6981 73.6049 12.0791 73.1636 12.6233C72.7382 13.152 72.3127 13.8751 71.8872 14.7925C71.4775 15.6944 71.1545 16.845 70.9181 18.2445C70.6187 18.4 70.3351 18.5011 70.0672 18.5477C69.9254 18.5788 69.7993 18.6021 69.689 18.6177C69.3738 18.6332 69.169 18.5788 69.0744 18.4544C68.9799 18.3456 68.9957 18.0657 69.1217 17.6147C69.1848 17.3971 69.2951 17.0472 69.4526 16.5651C69.626 16.0831 69.7914 15.5622 69.949 15.0024C70.1066 14.4271 70.2405 13.8595 70.3508 13.2997C70.4769 12.7244 70.5399 12.2268 70.5399 11.807C70.5399 11.5115 70.4848 11.3094 70.3745 11.2005C70.2799 11.0917 70.1381 11.0373 69.949 11.0373C69.8072 11.0373 69.5708 11.115 69.2399 11.2705C68.909 11.426 68.5387 11.7292 68.129 12.1802C67.7193 12.6311 67.3096 13.2609 66.8998 14.0694C66.5059 14.8625 66.1671 15.8965 65.8835 17.1716V17.1249C65.8519 17.2493 65.8204 17.3737 65.7889 17.4981C65.7574 17.607 65.7338 17.7236 65.718 17.848C65.7022 17.9724 65.6786 18.089 65.6471 18.1979L64.4652 18.711C64.3865 18.7421 64.284 18.7654 64.158 18.781C64.0477 18.7965 63.9373 18.7732 63.827 18.711C63.7325 18.6643 63.6616 18.5555 63.6143 18.3845C63.567 18.2134 63.5828 17.9568 63.6616 17.6147L65.1507 11.5271C65.198 11.3249 65.2374 11.1306 65.2689 10.944C65.3004 10.7729 65.3162 10.6097 65.3162 10.4542C65.3319 10.2831 65.3241 10.1432 65.2925 10.0343C65.5604 9.90992 65.7968 9.81662 66.0016 9.75442C66.2065 9.69223 66.372 9.64558 66.498 9.61448C66.6556 9.56783 66.7895 9.5445 66.8998 9.5445C67.4041 9.5445 67.5696 9.97212 67.3962 10.8273C67.3332 11.0761 67.2386 11.4416 67.1126 11.9236C67.412 11.5504 67.7271 11.2005 68.0581 10.874C68.4047 10.5319 68.7514 10.2287 69.0981 9.96434C69.4448 9.7 69.7914 9.49008 70.1381 9.33458C70.5005 9.17909 70.8551 9.10134 71.2018 9.10134C71.4697 9.10134 71.6903 9.17909 71.8636 9.33458C72.0527 9.49008 72.1945 9.7 72.2891 9.96434C72.3994 10.2131 72.4624 10.5164 72.4782 10.874C72.4939 11.2161 72.4782 11.5737 72.4309 11.9469C72.683 11.6204 72.9588 11.2938 73.2582 10.9673C73.5733 10.6252 73.8964 10.322 74.2273 10.0576C74.574 9.7933 74.9285 9.5756 75.291 9.40456C75.6534 9.23351 76.0158 9.14799 76.3783 9.14799C76.8037 9.14799 77.1268 9.27239 77.3474 9.52118C77.5838 9.76997 77.7413 10.0887 77.8201 10.4775C77.9147 10.8662 77.9383 11.2861 77.891 11.737C77.8595 12.1879 77.7965 12.6233 77.7019 13.0432L76.8983 16.192C76.7249 16.9694 76.8904 17.3582 77.3947 17.3582C77.7886 17.3582 78.222 17.1716 78.6947 16.7984C79.1674 16.4252 79.6244 15.982 80.0656 15.4689C80.5226 14.9558 80.9481 14.4271 81.342 13.8828C81.736 13.3386 82.0669 12.9032 82.3348 12.5767C82.4293 12.4678 82.5239 12.4056 82.6184 12.3901C82.7287 12.3745 82.8154 12.3979 82.8784 12.4601C82.9572 12.5067 82.9966 12.5922 82.9966 12.7166C83.0124 12.841 82.973 12.9965 82.8784 13.1831C82.5633 13.7273 82.1772 14.3338 81.7202 15.0024C81.2632 15.6555 80.759 16.2697 80.2075 16.845C79.6717 17.4204 79.0965 17.9024 78.482 18.2912C77.8674 18.6799 77.2292 18.8743 76.5674 18.8743C76.3468 18.8743 76.1261 18.8509 75.9055 18.8043C75.7007 18.7576 75.5037 18.6721 75.3146 18.5477C75.1413 18.4233 74.9995 18.2601 74.8891 18.0579C74.7788 17.8402 74.7237 17.5681 74.7237 17.2416Z" fill="black"/>
<path d="M1.70911 3.7134C1.52001 3.7756 1.37819 3.78338 1.28364 3.73673C1.1891 3.69008 1.11818 3.61233 1.07091 3.50349C1.02364 3.39464 1 3.27802 1 3.15362C1 3.01367 1.00788 2.8815 1.02364 2.7571C1.03939 2.64826 1.06303 2.52386 1.09455 2.38391C1.14182 2.24397 1.19697 2.1118 1.26001 1.9874C1.32304 1.863 1.39395 1.76193 1.47274 1.68418C1.56729 1.59088 1.68547 1.52869 1.82729 1.49759C2.55216 1.37319 3.25339 1.27989 3.93098 1.21769C4.62433 1.1555 5.24677 1.10885 5.7983 1.07775C6.42862 1.0311 7.0353 1.00777 7.61835 1.00777C7.74441 1.00777 7.87048 1.01555 7.99654 1.0311C8.1226 1.0311 8.24867 1.0311 8.37473 1.0311C8.51655 1 8.62686 0.992225 8.70565 1.00777C8.8002 1.00777 8.87899 1.01555 8.94202 1.0311C9.399 1.04665 9.87174 1.06997 10.3602 1.10107C10.7699 1.13217 11.2269 1.17105 11.7312 1.21769C12.2512 1.24879 12.7633 1.29544 13.2676 1.35764C13.3149 1.48204 13.3227 1.63753 13.2912 1.82413C13.2755 1.91743 13.2597 2.01072 13.2439 2.10402C13.2282 2.19732 13.1888 2.28284 13.1258 2.36059C13.0785 2.43834 13.0155 2.51609 12.9367 2.59383C12.8736 2.65603 12.7948 2.71046 12.7003 2.7571C12.1645 2.74155 11.6445 2.73378 11.1403 2.73378C10.6518 2.71823 10.2184 2.71046 9.84022 2.71046H8.56383C8.35897 3.42574 8.10685 4.31206 7.80745 5.36944C7.50804 6.41126 7.20076 7.51528 6.8856 8.6815C6.5862 9.83217 6.29468 10.9828 6.01104 12.1335C5.74315 13.2686 5.53042 14.2949 5.37284 15.2123C5.21526 16.0987 5.05768 16.9694 4.9001 17.8247C4.83707 18.1823 4.76616 18.5555 4.68737 18.9442C4.62433 19.333 4.5613 19.7139 4.49827 20.0871C4.451 20.4603 4.40372 20.818 4.35645 21.1601C4.30917 21.5021 4.26978 21.8131 4.23826 22.093C3.98614 22.2174 3.74977 22.3107 3.52915 22.3729C3.30854 22.4507 3.11157 22.5051 2.93823 22.5362C2.73338 22.5828 2.54428 22.6062 2.37094 22.6062C1.99275 22.6062 1.75638 22.5595 1.66183 22.4662C1.58305 22.3885 1.57517 22.2252 1.6382 21.9764C1.68547 21.7587 1.82729 21.1678 2.06366 20.2038C2.15821 19.7995 2.2764 19.2863 2.41822 18.6643C2.5758 18.0579 2.75701 17.3193 2.96187 16.4485C3.16672 15.5622 3.41097 14.5359 3.69461 13.3697C3.97826 12.1879 4.3013 10.8351 4.66373 9.31126L6.24741 2.82708C5.77467 2.88928 5.30981 2.95925 4.85282 3.037C4.39584 3.11475 3.9625 3.20027 3.55279 3.29357C3.15884 3.37131 2.79641 3.44906 2.46549 3.52681C2.15033 3.60456 1.8982 3.66676 1.70911 3.7134Z" stroke="black" stroke-width="0.3"/>
<path d="M22.6515 13.6729C22.4308 13.9839 22.1472 14.3727 21.8005 14.8391C21.4538 15.2901 21.0914 15.7488 20.7132 16.2153C20.3508 16.6662 19.9884 17.0861 19.6259 17.4748C19.2792 17.848 18.9877 18.1123 18.7514 18.2678C18.5938 18.3611 18.4126 18.4389 18.2077 18.5011C18.0029 18.5633 17.7901 18.6021 17.5695 18.6177C17.3647 18.6332 17.1677 18.6177 16.9786 18.571C16.7895 18.5399 16.624 18.4777 16.4822 18.3845C16.3404 18.2756 16.2222 18.1201 16.1277 17.918C16.0489 17.7469 15.9701 17.5214 15.8913 17.2416C15.8283 16.9617 15.8046 16.6118 15.8204 16.192C15.4422 16.8139 15.0246 17.296 14.5676 17.6381C14.1106 17.9646 13.6773 18.2056 13.2676 18.3611C12.7948 18.5322 12.3221 18.6332 11.8494 18.6643C11.6288 18.6643 11.3924 18.5866 11.1403 18.4311C10.8881 18.2912 10.6754 18.0657 10.5021 17.7547C10.3287 17.4282 10.2184 17.0161 10.1711 16.5185C10.1239 16.0054 10.1869 15.3989 10.3602 14.6992C10.5808 13.7507 10.9275 12.8877 11.4003 12.1102C11.8888 11.3327 12.4167 10.6719 12.9839 10.1276C13.5512 9.56783 14.1106 9.14799 14.6622 8.8681C15.2137 8.5882 15.6707 8.46381 16.0331 8.49491C16.4586 8.57265 16.8052 8.69705 17.0731 8.8681C17.2937 9.02359 17.4356 9.25684 17.4986 9.56783C17.5774 9.86327 17.4513 10.2598 17.1204 10.7574C17.341 10.7107 17.5222 10.6796 17.6641 10.6641C17.8216 10.6485 17.9398 10.6408 18.0186 10.6408C18.1132 10.6408 18.1762 10.6485 18.2077 10.6641C18.2235 10.6952 18.2313 10.7651 18.2313 10.874C18.2313 10.9673 18.2077 11.1461 18.1604 11.4105C18.1132 11.6748 18.0422 12.0324 17.9477 12.4834C17.8532 12.9343 17.7271 13.5174 17.5695 14.2327C17.538 14.3727 17.5065 14.5048 17.475 14.6292C17.4592 14.7381 17.4356 14.8547 17.4041 14.9791C17.3883 15.0879 17.3647 15.2201 17.3331 15.3756C17.3016 15.5311 17.2622 15.7255 17.215 15.9587C17.1992 16.0987 17.1913 16.2542 17.1913 16.4252C17.2071 16.5807 17.2386 16.7284 17.2859 16.8684C17.3331 17.0083 17.4041 17.1249 17.4986 17.2182C17.6089 17.296 17.7586 17.3349 17.9477 17.3349C18.1053 17.3349 18.3101 17.2416 18.5623 17.055C18.8144 16.8528 19.0823 16.604 19.3659 16.3086C19.6496 15.9976 19.9411 15.6633 20.2405 15.3056C20.5556 14.9324 20.8472 14.5748 21.1151 14.2327C21.3829 13.8906 21.6193 13.5874 21.8242 13.3231C22.0448 13.0587 22.2024 12.8643 22.2969 12.7399C22.423 12.6 22.549 12.5223 22.6751 12.5067C22.8012 12.4756 22.8957 12.5067 22.9587 12.6C23.0218 12.6933 23.0296 12.8332 22.9824 13.0198C22.9509 13.2064 22.8406 13.4241 22.6515 13.6729ZM15.7258 14.6992C15.8046 14.3882 15.8992 14.0228 16.0095 13.6029C16.1198 13.1831 16.2143 12.7788 16.2931 12.3901C16.3719 12.0013 16.4271 11.6826 16.4586 11.4338C16.5058 11.1694 16.498 11.045 16.4349 11.0606C16.3561 11.0761 16.2695 11.0995 16.1749 11.1306C16.0961 11.1617 15.9937 11.185 15.8676 11.2005C15.7416 11.2161 15.6155 11.2394 15.4895 11.2705C15.6155 11.0217 15.6864 10.8196 15.7022 10.6641C15.7337 10.493 15.7416 10.3609 15.7258 10.2676C15.7101 10.1587 15.6786 10.0732 15.6313 10.011C15.4579 9.87105 15.1507 9.98767 14.7094 10.3609C14.284 10.7185 13.7876 11.3871 13.2203 12.3668C12.9839 12.771 12.7948 13.2064 12.653 13.6729C12.5112 14.1239 12.4088 14.5515 12.3457 14.9558C12.2985 15.3601 12.2906 15.7177 12.3221 16.0287C12.3536 16.3241 12.4167 16.5185 12.5112 16.6118C12.6845 16.7828 12.8815 16.8684 13.1021 16.8684C13.3227 16.8528 13.5433 16.7906 13.764 16.6818C14.0003 16.5574 14.2288 16.4019 14.4494 16.2153C14.6858 16.0287 14.8907 15.8343 15.064 15.6322C15.2531 15.43 15.4028 15.2434 15.5131 15.0724C15.6392 14.9013 15.7101 14.7769 15.7258 14.6992Z" stroke="black" stroke-width="0.3"/>
<path d="M27.3079 21.6499C27.2291 22.0231 27.1267 22.4895 27.0007 23.0493C26.8904 23.6091 26.7564 24.2 26.5988 24.822C26.457 25.444 26.2837 26.0582 26.0788 26.6646C25.8897 27.2866 25.677 27.8386 25.4406 28.3206C25.2042 28.8182 24.9442 29.2225 24.6606 29.5335C24.377 29.8445 24.0618 30 23.7151 30C23.1951 30 22.746 29.8445 22.3678 29.5335C22.0054 29.2381 21.6981 28.8571 21.446 28.3906C21.1938 27.9397 21.0126 27.4499 20.9023 26.9212C20.7763 26.3925 20.7132 25.9027 20.7132 25.4517C20.7132 24.8298 20.7684 24.3088 20.8787 23.889C20.989 23.4847 21.1781 23.096 21.446 22.7228C21.7296 22.3496 22.1078 21.9531 22.5805 21.5332C23.0533 21.1134 23.66 20.5925 24.4006 19.9705C24.763 19.6595 25.1097 19.3641 25.4406 19.0842C25.7715 18.8043 26.0867 18.5477 26.3861 18.3145C26.4649 18.0035 26.5358 17.7158 26.5988 17.4515C26.6776 17.1716 26.7407 16.9228 26.7879 16.7051C26.3782 17.2493 25.8818 17.708 25.2988 18.0812C24.7315 18.4544 24.0776 18.641 23.3369 18.641C22.6593 18.641 22.1078 18.3456 21.6823 17.7547C21.2726 17.1483 21.0678 16.2619 21.0678 15.0957C21.0678 14.5204 21.1781 13.8595 21.3987 13.1131C21.6193 12.3668 21.9345 11.667 22.3442 11.0139C22.7539 10.3609 23.2581 9.80885 23.8569 9.35791C24.4557 8.90697 25.1255 8.6815 25.8661 8.6815C26.2128 8.6815 26.5122 8.76702 26.7643 8.93807C27.0164 9.10912 27.2291 9.32681 27.4025 9.59115C27.5758 9.83995 27.7098 10.1121 27.8043 10.4075C27.8989 10.6874 27.9698 10.9517 28.017 11.2005C28.0486 11.1072 28.0722 11.0139 28.088 10.9206C28.1037 10.8118 28.1274 10.7185 28.1589 10.6408C28.3164 10.1121 28.4898 9.75442 28.6789 9.56783C28.8837 9.36568 29.1831 9.26461 29.5771 9.26461C29.7977 9.26461 29.9789 9.30349 30.1207 9.38123C30.2783 9.45898 30.3571 9.52895 30.3571 9.59115C30.2783 9.7622 30.2153 9.89437 30.168 9.98767C30.1207 10.081 30.0735 10.182 30.0262 10.2909C29.9789 10.3842 29.9316 10.5086 29.8844 10.6641C29.8371 10.8196 29.7741 11.045 29.6953 11.3405C29.6638 11.4493 29.6007 11.7059 29.5062 12.1102C29.4274 12.4989 29.3171 12.9654 29.1753 13.5097C29.0492 14.0539 28.9074 14.6525 28.7498 15.3056C28.608 15.9587 28.4661 16.5962 28.3243 17.2182C28.7656 16.9694 29.2225 16.6662 29.6953 16.3086C30.168 15.9509 30.6171 15.5855 31.0426 15.2123C31.468 14.8391 31.8462 14.4893 32.1772 14.1627C32.5081 13.8206 32.7523 13.5408 32.9099 13.3231C33.036 13.1365 33.1778 13.0043 33.3354 12.9265C33.4929 12.8488 33.6269 12.8255 33.7372 12.8566C33.8633 12.8721 33.9342 12.9421 33.9499 13.0665C33.9814 13.1753 33.9342 13.3308 33.8081 13.533C33.4457 14.1083 33.0044 14.6681 32.4844 15.2123C31.9644 15.741 31.4286 16.2386 30.8771 16.7051C30.3413 17.156 29.8135 17.5603 29.2934 17.918C28.7892 18.2601 28.3558 18.5399 27.9934 18.7576C27.8358 19.4574 27.7019 20.0249 27.5916 20.4603C27.4813 20.8957 27.3867 21.2922 27.3079 21.6499ZM24.3297 17.055C24.6606 17.055 24.9679 16.9694 25.2515 16.7984C25.5509 16.6273 25.8188 16.433 26.0552 16.2153C26.2915 15.982 26.4885 15.7488 26.6461 15.5155C26.8037 15.2823 26.9219 15.0957 27.0007 14.9558C27.0637 14.8158 27.1346 14.6292 27.2134 14.396C27.3079 14.1627 27.3788 13.9373 27.4261 13.7196C27.4734 13.5019 27.4892 13.3075 27.4734 13.1365C27.4734 12.9654 27.4182 12.8721 27.3079 12.8566C27.2134 12.841 27.1346 12.7788 27.0716 12.67C27.0243 12.5611 26.9849 12.4367 26.9534 12.2968C26.9219 12.1568 26.8982 12.0169 26.8825 11.8769C26.8825 11.737 26.8746 11.6126 26.8588 11.5038C26.78 10.9595 26.6461 10.563 26.457 10.3142C26.2679 10.0654 26.0552 9.94102 25.8188 9.94102C25.4249 9.94102 25.0467 10.0965 24.6842 10.4075C24.3376 10.7185 24.0224 11.1228 23.7388 11.6204C23.4709 12.1024 23.2581 12.6389 23.1006 13.2298C22.943 13.8051 22.8642 14.3571 22.8642 14.8858C22.8642 15.5389 22.9587 16.0676 23.1478 16.4719C23.3369 16.8606 23.7309 17.055 24.3297 17.055ZM23.2424 27.8775C23.5575 27.8775 23.8097 27.6442 23.9988 27.1777C24.2036 26.7268 24.4163 26.1048 24.637 25.3118C24.6842 25.1252 24.7473 24.8531 24.8261 24.4954C24.9206 24.1534 25.023 23.7568 25.1333 23.3059C25.2594 22.855 25.3855 22.3651 25.5115 21.8365C25.6376 21.3233 25.7715 20.8024 25.9134 20.2737C25.7873 20.3826 25.6534 20.4914 25.5115 20.6003C25.3855 20.7247 25.2515 20.8646 25.1097 21.0201C24.763 21.3466 24.4242 21.6576 24.0933 21.9531C23.7782 22.2641 23.4945 22.5828 23.2424 22.9094C22.9903 23.2515 22.7854 23.6169 22.6278 24.0056C22.486 24.3944 22.4151 24.8453 22.4151 25.3584C22.4151 25.8716 22.4308 26.2914 22.4624 26.618C22.5096 26.9445 22.5648 27.2011 22.6278 27.3877C22.7066 27.5743 22.7933 27.6987 22.8878 27.7609C22.9981 27.8386 23.1163 27.8775 23.2424 27.8775Z" stroke="black" stroke-width="0.3"/>
<path d="M38.4409 21.6499C38.3622 22.0231 38.2597 22.4895 38.1337 23.0493C38.0234 23.6091 37.8894 24.2 37.7318 24.822C37.59 25.444 37.4167 26.0582 37.2118 26.6646C37.0227 27.2866 36.81 27.8386 36.5736 28.3206C36.3373 28.8182 36.0773 29.2225 35.7936 29.5335C35.51 29.8445 35.1948 30 34.8481 30C34.3281 30 33.879 29.8445 33.5008 29.5335C33.1384 29.2381 32.8311 28.8571 32.579 28.3906C32.3269 27.9397 32.1456 27.4499 32.0353 26.9212C31.9093 26.3925 31.8462 25.9027 31.8462 25.4517C31.8462 24.8298 31.9014 24.3088 32.0117 23.889C32.122 23.4847 32.3111 23.096 32.579 22.7228C32.8626 22.3496 33.2408 21.9531 33.7136 21.5332C34.1863 21.1134 34.793 20.5925 35.5336 19.9705C35.896 19.6595 36.2427 19.3641 36.5736 19.0842C36.9045 18.8043 37.2197 18.5477 37.5191 18.3145C37.5979 18.0035 37.6688 17.7158 37.7318 17.4515C37.8106 17.1716 37.8737 16.9228 37.9209 16.7051C37.5112 17.2493 37.0149 17.708 36.4318 18.0812C35.8645 18.4544 35.2106 18.641 34.4699 18.641C33.7923 18.641 33.2408 18.3456 32.8153 17.7547C32.4056 17.1483 32.2008 16.2619 32.2008 15.0957C32.2008 14.5204 32.3111 13.8595 32.5317 13.1131C32.7523 12.3668 33.0675 11.667 33.4772 11.0139C33.8869 10.3609 34.3911 9.80885 34.99 9.35791C35.5888 8.90697 36.2585 8.6815 36.9991 8.6815C37.3458 8.6815 37.6452 8.76702 37.8973 8.93807C38.1494 9.10912 38.3622 9.32681 38.5355 9.59115C38.7088 9.83995 38.8428 10.1121 38.9373 10.4075C39.0319 10.6874 39.1028 10.9517 39.1501 11.2005C39.1816 11.1072 39.2052 11.0139 39.221 10.9206C39.2367 10.8118 39.2604 10.7185 39.2919 10.6408C39.4495 10.1121 39.6228 9.75442 39.8119 9.56783C40.0167 9.36568 40.3161 9.26461 40.7101 9.26461C40.9307 9.26461 41.1119 9.30349 41.2537 9.38123C41.4113 9.45898 41.4901 9.52895 41.4901 9.59115C41.4113 9.7622 41.3483 9.89437 41.301 9.98767C41.2537 10.081 41.2065 10.182 41.1592 10.2909C41.1119 10.3842 41.0646 10.5086 41.0174 10.6641C40.9701 10.8196 40.9071 11.045 40.8283 11.3405C40.7968 11.4493 40.7337 11.7059 40.6392 12.1102C40.5604 12.4989 40.4501 12.9654 40.3083 13.5097C40.1822 14.0539 40.0404 14.6525 39.8828 15.3056C39.741 15.9587 39.5992 16.5962 39.4573 17.2182C39.8986 16.9694 40.3555 16.6662 40.8283 16.3086C41.301 15.9509 41.7501 15.5855 42.1756 15.2123C42.6011 14.8391 42.9792 14.4893 43.3102 14.1627C43.6411 13.8206 43.8853 13.5408 44.0429 13.3231C44.169 13.1365 44.3108 13.0043 44.4684 12.9265C44.6259 12.8488 44.7599 12.8255 44.8702 12.8566C44.9963 12.8721 45.0672 12.9421 45.0829 13.0665C45.1144 13.1753 45.0672 13.3308 44.9411 13.533C44.5787 14.1083 44.1375 14.6681 43.6174 15.2123C43.0974 15.741 42.5617 16.2386 42.0101 16.7051C41.4744 17.156 40.9465 17.5603 40.4265 17.918C39.9222 18.2601 39.4889 18.5399 39.1264 18.7576C38.9688 19.4574 38.8349 20.0249 38.7246 20.4603C38.6143 20.8957 38.5197 21.2922 38.4409 21.6499ZM35.4627 17.055C35.7936 17.055 36.1009 16.9694 36.3845 16.7984C36.6839 16.6273 36.9518 16.433 37.1882 16.2153C37.4246 15.982 37.6215 15.7488 37.7791 15.5155C37.9367 15.2823 38.0549 15.0957 38.1337 14.9558C38.1967 14.8158 38.2676 14.6292 38.3464 14.396C38.4409 14.1627 38.5119 13.9373 38.5591 13.7196C38.6064 13.5019 38.6222 13.3075 38.6064 13.1365C38.6064 12.9654 38.5513 12.8721 38.4409 12.8566C38.3464 12.841 38.2676 12.7788 38.2046 12.67C38.1573 12.5611 38.1179 12.4367 38.0864 12.2968C38.0549 12.1568 38.0312 12.0169 38.0155 11.8769C38.0155 11.737 38.0076 11.6126 37.9918 11.5038C37.9131 10.9595 37.7791 10.563 37.59 10.3142C37.4009 10.0654 37.1882 9.94102 36.9518 9.94102C36.5579 9.94102 36.1797 10.0965 35.8172 10.4075C35.4706 10.7185 35.1554 11.1228 34.8718 11.6204C34.6039 12.1024 34.3911 12.6389 34.2336 13.2298C34.076 13.8051 33.9972 14.3571 33.9972 14.8858C33.9972 15.5389 34.0917 16.0676 34.2808 16.4719C34.4699 16.8606 34.8639 17.055 35.4627 17.055ZM34.3754 27.8775C34.6905 27.8775 34.9427 27.6442 35.1318 27.1777C35.3366 26.7268 35.5494 26.1048 35.77 25.3118C35.8172 25.1252 35.8803 24.8531 35.9591 24.4954C36.0536 24.1534 36.156 23.7568 36.2663 23.3059C36.3924 22.855 36.5185 22.3651 36.6445 21.8365C36.7706 21.3233 36.9045 20.8024 37.0464 20.2737C36.9203 20.3826 36.7864 20.4914 36.6445 20.6003C36.5185 20.7247 36.3845 20.8646 36.2427 21.0201C35.896 21.3466 35.5572 21.6576 35.2263 21.9531C34.9112 22.2641 34.6275 22.5828 34.3754 22.9094C34.1233 23.2515 33.9184 23.6169 33.7608 24.0056C33.619 24.3944 33.5481 24.8453 33.5481 25.3584C33.5481 25.8716 33.5639 26.2914 33.5954 26.618C33.6426 26.9445 33.6978 27.2011 33.7608 27.3877C33.8396 27.5743 33.9263 27.6987 34.0208 27.7609C34.1311 27.8386 34.2493 27.8775 34.3754 27.8775Z" stroke="black" stroke-width="0.3"/>
<path d="M42.4356 18.1979C42.3253 18.3689 42.2071 18.4777 42.081 18.5244C41.9392 18.5866 41.821 18.5944 41.7265 18.5477C41.6162 18.5166 41.5453 18.4389 41.5138 18.3145C41.4822 18.1901 41.5138 18.0346 41.6083 17.848C41.6556 17.7547 41.7659 17.5448 41.9392 17.2182C42.0968 16.8917 42.2938 16.5029 42.5301 16.052C42.7508 15.5855 42.995 15.0879 43.2629 14.5592C43.5308 14.015 43.7829 13.5019 44.0193 13.0198C44.2714 12.5378 44.4999 12.1102 44.7047 11.737C44.9096 11.3483 45.0593 11.0684 45.1538 10.8973C44.9805 10.7418 44.8623 10.633 44.7993 10.5708C44.7363 10.493 44.689 10.3375 44.6575 10.1043C44.6259 9.90215 44.6732 9.6378 44.7993 9.31126C44.9254 8.98472 45.0908 8.67373 45.2957 8.37828C45.5005 8.06729 45.729 7.80295 45.9811 7.58525C46.2333 7.36756 46.4775 7.25871 46.7139 7.25871C47.1551 7.25871 47.4624 7.39866 47.6357 7.67855C47.8248 7.95845 47.9351 8.24611 47.9666 8.54155C47.9982 8.7437 47.9824 9.00027 47.9194 9.31126C47.8563 9.62225 47.7382 9.90215 47.5648 10.1509C47.6121 10.182 47.6751 10.2209 47.7539 10.2676C47.8327 10.2987 47.9588 10.3142 48.1321 10.3142C48.3842 10.3142 48.5576 10.2987 48.6521 10.2676C48.7624 10.2365 48.9279 10.2209 49.1485 10.2209C49.4164 10.2209 49.637 10.2909 49.8103 10.4308C49.9837 10.5552 50.1255 10.7185 50.2358 10.9206C50.3461 11.1072 50.4249 11.3172 50.4722 11.5504C50.5352 11.7681 50.5746 11.9702 50.5903 12.1568C50.6376 12.5456 50.5352 12.9499 50.2831 13.3697C50.0309 13.7895 49.7237 14.2483 49.3612 14.7458C49.1406 15.0568 48.92 15.4067 48.6994 15.7954C48.4788 16.1842 48.3842 16.534 48.4157 16.845C48.4473 17.0472 48.5024 17.2105 48.5812 17.3349C48.66 17.4592 48.8806 17.5214 49.243 17.5214C49.5109 17.5214 49.8024 17.4282 50.1176 17.2416C50.4485 17.0394 50.7794 16.7906 51.1104 16.4952C51.457 16.1842 51.7958 15.8499 52.1267 15.4922C52.4577 15.119 52.7649 14.7614 53.0486 14.4193C53.3322 14.0617 53.5686 13.7429 53.7577 13.463C53.9626 13.1831 54.1123 12.981 54.2068 12.8566C54.2856 12.7322 54.388 12.6466 54.5141 12.6C54.6401 12.5534 54.7505 12.5534 54.845 12.6C54.9395 12.6466 54.9947 12.7399 55.0105 12.8799C55.042 13.0198 54.9868 13.2064 54.845 13.4397C54.7505 13.5952 54.585 13.844 54.3486 14.1861C54.128 14.5282 53.8522 14.9091 53.5213 15.329C53.2062 15.7488 52.8516 16.1842 52.4577 16.6351C52.0637 17.0705 51.6461 17.4748 51.2049 17.848C50.7794 18.2056 50.3461 18.5011 49.9049 18.7343C49.4794 18.9676 49.0697 19.0842 48.6758 19.0842C48.266 19.0842 47.9272 19.0064 47.6594 18.8509C47.3915 18.6954 47.1709 18.5088 46.9975 18.2912C46.8399 18.0579 46.7218 17.8091 46.643 17.5448C46.5799 17.2649 46.5563 17.0083 46.5721 16.7751C46.5878 16.5885 46.6351 16.3941 46.7139 16.192C46.8084 15.9743 46.9109 15.7566 47.0212 15.5389C47.1472 15.3056 47.2733 15.0802 47.3994 14.8625C47.5412 14.6292 47.6672 14.4038 47.7775 14.1861C48.0454 13.7351 48.2582 13.3542 48.4157 13.0432C48.5891 12.7166 48.6758 12.4445 48.6758 12.2268C48.6758 12.0869 48.6442 11.9625 48.5812 11.8536C48.5182 11.7448 48.4157 11.6903 48.2739 11.6903C48.1794 11.6903 48.1085 11.6981 48.0612 11.7137C48.0297 11.7137 47.9903 11.7137 47.943 11.7137C47.9115 11.7137 47.8563 11.7214 47.7775 11.737C47.7145 11.737 47.6121 11.737 47.4703 11.737C47.2654 11.737 47.0921 11.7059 46.9503 11.6437C46.8084 11.5815 46.6745 11.5349 46.5484 11.5038C46.4854 11.6126 46.3436 11.8458 46.123 12.2035C45.9023 12.5611 45.6423 12.981 45.3429 13.463C45.0593 13.945 44.752 14.4504 44.4211 14.9791C44.1059 15.5078 43.8065 16.0054 43.5229 16.4719C43.2393 16.9228 43.0029 17.3115 42.8138 17.6381C42.6089 17.9491 42.4829 18.1357 42.4356 18.1979Z" stroke="black" stroke-width="0.3"/>
<path d="M65.2925 13.6729C65.0719 13.9839 64.7883 14.3727 64.4416 14.8391C64.0949 15.2901 63.7325 15.7488 63.3543 16.2153C62.9919 16.6662 62.6294 17.0861 62.267 17.4748C61.9203 17.848 61.6288 18.1123 61.3924 18.2678C61.2349 18.3611 61.0536 18.4389 60.8488 18.5011C60.6439 18.5633 60.4312 18.6021 60.2106 18.6177C60.0057 18.6332 59.8088 18.6177 59.6197 18.571C59.4306 18.5399 59.2651 18.4777 59.1233 18.3845C58.9815 18.2756 58.8633 18.1201 58.7687 17.918C58.6899 17.7469 58.6112 17.5214 58.5324 17.2416C58.4693 16.9617 58.4457 16.6118 58.4615 16.192C58.0833 16.8139 57.6657 17.296 57.2087 17.6381C56.7517 17.9646 56.3184 18.2056 55.9087 18.3611C55.4359 18.5322 54.9632 18.6332 54.4904 18.6643C54.2698 18.6643 54.0335 18.5866 53.7813 18.4311C53.5292 18.2912 53.3165 18.0657 53.1431 17.7547C52.9698 17.4282 52.8595 17.0161 52.8122 16.5185C52.7649 16.0054 52.828 15.3989 53.0013 14.6992C53.2219 13.7507 53.5686 12.8877 54.0413 12.1102C54.5298 11.3327 55.0577 10.6719 55.625 10.1276C56.1923 9.56783 56.7517 9.14799 57.3032 8.8681C57.8548 8.5882 58.3118 8.46381 58.6742 8.49491C59.0997 8.57265 59.4463 8.69705 59.7142 8.8681C59.9348 9.02359 60.0766 9.25684 60.1397 9.56783C60.2185 9.86327 60.0924 10.2598 59.7615 10.7574C59.9821 10.7107 60.1633 10.6796 60.3051 10.6641C60.4627 10.6485 60.5809 10.6408 60.6597 10.6408C60.7542 10.6408 60.8173 10.6485 60.8488 10.6641C60.8645 10.6952 60.8724 10.7651 60.8724 10.874C60.8724 10.9673 60.8488 11.1461 60.8015 11.4105C60.7542 11.6748 60.6833 12.0324 60.5888 12.4834C60.4942 12.9343 60.3682 13.5174 60.2106 14.2327C60.1791 14.3727 60.1476 14.5048 60.116 14.6292C60.1003 14.7381 60.0766 14.8547 60.0451 14.9791C60.0294 15.0879 60.0057 15.2201 59.9742 15.3756C59.9427 15.5311 59.9033 15.7255 59.856 15.9587C59.8403 16.0987 59.8324 16.2542 59.8324 16.4252C59.8482 16.5807 59.8797 16.7284 59.9269 16.8684C59.9742 17.0083 60.0451 17.1249 60.1397 17.2182C60.25 17.296 60.3997 17.3349 60.5888 17.3349C60.7464 17.3349 60.9512 17.2416 61.2033 17.055C61.4555 16.8528 61.7234 16.604 62.007 16.3086C62.2906 15.9976 62.5822 15.6633 62.8816 15.3056C63.1967 14.9324 63.4882 14.5748 63.7561 14.2327C64.024 13.8906 64.2604 13.5874 64.4652 13.3231C64.6859 13.0587 64.8434 12.8643 64.938 12.7399C65.064 12.6 65.1901 12.5223 65.3162 12.5067C65.4422 12.4756 65.5368 12.5067 65.5998 12.6C65.6628 12.6933 65.6707 12.8332 65.6235 13.0198C65.5919 13.2064 65.4816 13.4241 65.2925 13.6729ZM58.3669 14.6992C58.4457 14.3882 58.5402 14.0228 58.6505 13.6029C58.7609 13.1831 58.8554 12.7788 58.9342 12.3901C59.013 12.0013 59.0681 11.6826 59.0997 11.4338C59.1469 11.1694 59.139 11.045 59.076 11.0606C58.9972 11.0761 58.9106 11.0995 58.816 11.1306C58.7372 11.1617 58.6348 11.185 58.5087 11.2005C58.3827 11.2161 58.2566 11.2394 58.1305 11.2705C58.2566 11.0217 58.3275 10.8196 58.3433 10.6641C58.3748 10.493 58.3827 10.3609 58.3669 10.2676C58.3511 10.1587 58.3196 10.0732 58.2724 10.011C58.099 9.87105 57.7917 9.98767 57.3505 10.3609C56.925 10.7185 56.4287 11.3871 55.8614 12.3668C55.625 12.771 55.4359 13.2064 55.2941 13.6729C55.1523 14.1239 55.0499 14.5515 54.9868 14.9558C54.9395 15.3601 54.9317 15.7177 54.9632 16.0287C54.9947 16.3241 55.0577 16.5185 55.1523 16.6118C55.3256 16.7828 55.5226 16.8684 55.7432 16.8684C55.9638 16.8528 56.1844 16.7906 56.405 16.6818C56.6414 16.5574 56.8699 16.4019 57.0905 16.2153C57.3269 16.0287 57.5317 15.8343 57.7051 15.6322C57.8942 15.43 58.0439 15.2434 58.1542 15.0724C58.2802 14.9013 58.3511 14.7769 58.3669 14.6992Z" stroke="black" stroke-width="0.3"/>
<path d="M74.7237 17.2416C74.7237 16.915 74.7552 16.5418 74.8182 16.122C74.897 15.7021 74.9916 15.2745 75.1019 14.8391C75.2122 14.3882 75.3225 13.9528 75.4328 13.533C75.5431 13.1131 75.6376 12.7399 75.7164 12.4134C75.811 12.0091 75.8031 11.6981 75.6928 11.4804C75.5825 11.2627 75.3934 11.1539 75.1255 11.1539C74.9995 11.1539 74.7473 11.2627 74.3691 11.4804C74.0067 11.6981 73.6049 12.0791 73.1636 12.6233C72.7382 13.152 72.3127 13.8751 71.8872 14.7925C71.4775 15.6944 71.1545 16.845 70.9181 18.2445C70.6187 18.4 70.3351 18.5011 70.0672 18.5477C69.9254 18.5788 69.7993 18.6021 69.689 18.6177C69.3738 18.6332 69.169 18.5788 69.0744 18.4544C68.9799 18.3456 68.9957 18.0657 69.1217 17.6147C69.1848 17.3971 69.2951 17.0472 69.4526 16.5651C69.626 16.0831 69.7914 15.5622 69.949 15.0024C70.1066 14.4271 70.2405 13.8595 70.3508 13.2997C70.4769 12.7244 70.5399 12.2268 70.5399 11.807C70.5399 11.5115 70.4848 11.3094 70.3745 11.2005C70.2799 11.0917 70.1381 11.0373 69.949 11.0373C69.8072 11.0373 69.5708 11.115 69.2399 11.2705C68.909 11.426 68.5387 11.7292 68.129 12.1802C67.7193 12.6311 67.3096 13.2609 66.8998 14.0694C66.5059 14.8625 66.1671 15.8965 65.8835 17.1716V17.1249C65.8519 17.2493 65.8204 17.3737 65.7889 17.4981C65.7574 17.607 65.7338 17.7236 65.718 17.848C65.7022 17.9724 65.6786 18.089 65.6471 18.1979L64.4652 18.711C64.3865 18.7421 64.284 18.7654 64.158 18.781C64.0477 18.7965 63.9373 18.7732 63.827 18.711C63.7325 18.6643 63.6616 18.5555 63.6143 18.3845C63.567 18.2134 63.5828 17.9568 63.6616 17.6147L65.1507 11.5271C65.198 11.3249 65.2374 11.1306 65.2689 10.944C65.3004 10.7729 65.3162 10.6097 65.3162 10.4542C65.3319 10.2831 65.3241 10.1432 65.2925 10.0343C65.5604 9.90992 65.7968 9.81662 66.0016 9.75442C66.2065 9.69223 66.372 9.64558 66.498 9.61448C66.6556 9.56783 66.7895 9.5445 66.8998 9.5445C67.4041 9.5445 67.5696 9.97212 67.3962 10.8273C67.3332 11.0761 67.2386 11.4416 67.1126 11.9236C67.412 11.5504 67.7271 11.2005 68.0581 10.874C68.4047 10.5319 68.7514 10.2287 69.0981 9.96434C69.4448 9.7 69.7914 9.49008 70.1381 9.33458C70.5005 9.17909 70.8551 9.10134 71.2018 9.10134C71.4697 9.10134 71.6903 9.17909 71.8636 9.33458C72.0527 9.49008 72.1945 9.7 72.2891 9.96434C72.3994 10.2131 72.4624 10.5164 72.4782 10.874C72.4939 11.2161 72.4782 11.5737 72.4309 11.9469C72.683 11.6204 72.9588 11.2938 73.2582 10.9673C73.5733 10.6252 73.8964 10.322 74.2273 10.0576C74.574 9.7933 74.9285 9.5756 75.291 9.40456C75.6534 9.23351 76.0158 9.14799 76.3783 9.14799C76.8037 9.14799 77.1268 9.27239 77.3474 9.52118C77.5838 9.76997 77.7413 10.0887 77.8201 10.4775C77.9147 10.8662 77.9383 11.2861 77.891 11.737C77.8595 12.1879 77.7965 12.6233 77.7019 13.0432L76.8983 16.192C76.7249 16.9694 76.8904 17.3582 77.3947 17.3582C77.7886 17.3582 78.222 17.1716 78.6947 16.7984C79.1674 16.4252 79.6244 15.982 80.0656 15.4689C80.5226 14.9558 80.9481 14.4271 81.342 13.8828C81.736 13.3386 82.0669 12.9032 82.3348 12.5767C82.4293 12.4678 82.5239 12.4056 82.6184 12.3901C82.7287 12.3745 82.8154 12.3979 82.8784 12.4601C82.9572 12.5067 82.9966 12.5922 82.9966 12.7166C83.0124 12.841 82.973 12.9965 82.8784 13.1831C82.5633 13.7273 82.1772 14.3338 81.7202 15.0024C81.2632 15.6555 80.759 16.2697 80.2075 16.845C79.6717 17.4204 79.0965 17.9024 78.482 18.2912C77.8674 18.6799 77.2292 18.8743 76.5674 18.8743C76.3468 18.8743 76.1261 18.8509 75.9055 18.8043C75.7007 18.7576 75.5037 18.6721 75.3146 18.5477C75.1413 18.4233 74.9995 18.2601 74.8891 18.0579C74.7788 17.8402 74.7237 17.5681 74.7237 17.2416Z" stroke="black" stroke-width="0.3"/>
</svg>
