<svg width="80" height="30" viewBox="0 0 80 30" fill="none" xmlns="http://www.w3.org/2000/svg">
<g clip-path="url(#clip0_1598:15)">
<path fill-rule="evenodd" clip-rule="evenodd" d="M11.7672 13.4806C11.7672 13.4806 14.7737 17.4569 1.42242 18.75C2.4569 19.0733 6.98277 18.9763 9.9569 17.6508C12.6401 16.4547 13.2543 14.709 11.7672 13.4806Z" fill="#8E8E8E"/>
<path fill-rule="evenodd" clip-rule="evenodd" d="M8.68686 4.04095C8.75151 3.97629 8.78384 3.94397 8.8485 3.87931C8.71919 4.00862 8.68686 4.04095 8.68686 4.04095ZM7.65238 12.0259C7.16746 11.9935 6.81186 11.9612 6.81186 11.9612C7.00582 11.9935 7.29677 11.9935 7.65238 12.0259ZM26.0144 0C26.0144 0 21.6179 0.9375 13.9886 4.94612C12.8571 2.55388 11.2084 1.74569 8.8485 3.91164C9.39807 3.45905 11.2084 2.32759 12.9218 5.52802C10.6912 6.75647 8.16962 8.21121 5.4541 10.0216C-5.50495 17.7155 2.47996 18.7177 8.6222 15.3233C13.8916 12.3815 9.81832 12.1552 7.6847 12.0582C9.62436 12.2198 13.6007 12.931 6.22996 15.6789C-3.01573 19.0733 2.25367 12.4138 12.4692 6.69181C12.7601 6.53017 13.0188 6.36853 13.2774 6.23922C14.7644 9.53664 16.1222 16.3578 16.4778 30C16.4778 30 17.092 12.8017 14.3119 5.68966C22.9433 0.9375 26.0144 0 26.0144 0Z" fill="#8E8E8E"/>
<path fill-rule="evenodd" clip-rule="evenodd" d="M16.5194 6.85349C24.1164 2.74789 26.8319 1.9397 26.8319 1.9397C26.8319 1.9397 22.9526 2.74789 16.1638 6.17461" fill="#8E8E8E"/>
<path d="M23.1142 10.8621H21.3362C21.1099 10.8621 20.9806 10.9914 20.9806 11.2177V11.9289H19.1056V10.1186C19.1056 9.34273 19.3642 9.08411 20.1401 9.08411H28.1573C28.9332 9.08411 29.1918 9.34273 29.1918 10.1186V11.9289H27.3168V11.2177C27.3168 10.9914 27.1875 10.8621 26.9612 10.8621H25.2155V20.5604H23.0819V10.8621H23.1142Z" fill="#8E8E8E"/>
<path d="M33.1034 15.3557H33.3621V15.291C33.3621 14.0949 32.8771 13.6746 31.8427 13.6746C31.4547 13.6746 30.7435 13.7716 30.7435 14.2242V14.6445H28.8362V13.7716C28.8362 12.2199 31.0021 12.0906 31.875 12.0906C34.6228 12.0906 35.431 13.5453 35.431 15.388V18.4591C35.431 18.6854 35.5603 18.8147 35.7866 18.8147H36.4332V20.5604H34.5905C33.847 20.5604 33.556 20.1401 33.556 19.6552C33.556 19.4289 33.556 19.2996 33.556 19.2996H33.5237C33.5237 19.2996 32.8771 20.7544 31.0345 20.7544C29.5474 20.7544 28.222 19.8492 28.222 18.1682C28.1896 15.582 31.7457 15.3557 33.1034 15.3557ZM31.5194 19.138C32.6185 19.138 33.3944 17.9742 33.3944 16.972V16.7781H33.0388C31.972 16.7781 30.2586 16.9397 30.2586 18.0712C30.2586 18.6207 30.6789 19.138 31.5194 19.138Z" fill="#8E8E8E"/>
<path d="M40.0862 12.0906C41.9935 12.0906 42.6401 13.2544 42.6401 13.2544H42.6724C42.6724 13.2544 42.6724 13.1574 42.6724 13.0281C42.6724 12.6401 42.931 12.2522 43.5776 12.2522H45.4849V13.9979H44.8384C44.6121 13.9979 44.4828 14.1272 44.4828 14.3212V20.0432C44.4828 22.8556 42.2845 23.9548 40.1185 23.9548C39.0841 23.9548 37.9849 23.6638 37.1767 23.2436L37.8233 21.6272C37.8233 21.6272 38.8578 22.1768 40.1185 22.1768C41.347 22.1768 42.4461 21.6595 42.4461 20.1401V19.7522C42.4461 19.5582 42.4461 19.3319 42.4461 19.3319H42.4138C41.9289 20.0108 41.2177 20.3988 40.1185 20.3988C37.7586 20.3988 36.4009 18.4914 36.4009 16.2285C36.4332 13.9332 37.694 12.0906 40.0862 12.0906ZM42.4784 16.2285C42.4784 14.3535 41.5409 13.8363 40.4095 13.8363C39.1487 13.8363 38.4698 14.7414 38.4698 16.1315C38.4698 17.5863 39.181 18.6531 40.5065 18.6531C41.541 18.6531 42.4784 18.0712 42.4784 16.2285Z" fill="#8E8E8E"/>
<path d="M46.0668 14.4182C45.9375 14.1272 45.7759 14.0626 45.4849 14.0626H45.3233L45.0323 12.3169H45.4849C46.2608 12.3169 46.4871 12.4785 46.778 13.2221L48.75 18.2975C48.8793 18.6854 49.0086 19.235 49.0086 19.235H49.0409C49.0409 19.235 49.1703 18.6854 49.2996 18.2975L51.2716 13.2221C51.5302 12.5109 51.7888 12.3169 52.5647 12.3169H52.9849V13.2867H52.8233C52.5323 13.2867 52.3384 13.3514 52.2414 13.6423L49.5905 20.4635H48.3944L46.0668 14.4182Z" fill="#8E8E8E"/>
<path d="M54.6983 13.6099C54.6983 13.3837 54.569 13.2543 54.3427 13.2543H53.6638V12.2845H54.7953C55.5065 12.2845 55.7651 12.5755 55.7651 13.2543V19.1056C55.7651 19.3643 55.8944 19.4612 56.1207 19.4612H56.7996V20.3987H55.6358C54.9246 20.3987 54.6659 20.1078 54.6659 19.4289V13.6099H54.6983ZM54.6659 9.05176H55.7328V10.4418H54.6659V9.05176Z" fill="#8E8E8E"/>
<path d="M61.9073 12.0906C64.1703 12.0906 65.334 13.8363 65.334 15.8406C65.334 16.0345 65.3017 16.3901 65.3017 16.3901H59.0625C59.0948 18.4591 60.5172 19.6229 62.1983 19.6229C63.6853 19.6229 64.6552 18.6207 64.6552 18.6207L65.2047 19.4613C65.2047 19.4613 64.0086 20.6251 62.1659 20.6251C59.7414 20.6251 57.8987 18.8794 57.8987 16.3578C57.8987 13.707 59.7414 12.0906 61.9073 12.0906ZM64.2026 15.5173C64.1379 13.8363 63.1034 12.9957 61.9073 12.9957C60.5496 12.9957 59.3858 13.8686 59.0948 15.5173H64.2026Z" fill="#8E8E8E"/>
<path d="M67.0474 13.61C66.9504 13.319 66.7565 13.2544 66.4655 13.2544H66.2716V12.2845H66.8535C67.6293 12.2845 67.8879 12.4462 68.1466 13.1897L69.8276 18.3621C69.9569 18.7501 70.0862 19.235 70.0862 19.235H70.1185C70.1185 19.235 70.2478 18.7501 70.3772 18.3621L72.3815 12.3169H73.4806L75.4849 18.3621C75.6142 18.7501 75.7435 19.235 75.7435 19.235H75.7759C75.7759 19.235 75.8728 18.7501 76.0022 18.3621L77.6832 13.1897C77.9418 12.4462 78.2004 12.2845 78.9763 12.2845H79.5582V13.2544H79.2026C78.9116 13.2544 78.7177 13.319 78.6207 13.61L76.2931 20.4311H75.0647L73.0603 14.6445C72.931 14.2565 72.8017 13.7716 72.8017 13.7716H72.7694C72.7694 13.7716 72.6401 14.2565 72.5108 14.6445L70.5388 20.4311H69.3103L67.0474 13.61Z" fill="#8E8E8E"/>
</g>
<defs>
<clipPath id="clip0_1598:15">
<rect width="79.4289" height="30" fill="white"/>
</clipPath>
</defs>
</svg>
